<?xml version="1.0" encoding="utf-8"?>
<!-- Generator: Adobe Illustrator 22.0.1, SVG Export Plug-In . SVG Version: 6.00 Build 0)  -->
<svg version="1.1" id="Layer_1" xmlns="http://www.w3.org/2000/svg" xmlns:xlink="http://www.w3.org/1999/xlink" x="0px" y="0px"
	 width="100px" height="100px" viewBox="0 0 100 100" style="enable-background:new 0 0 100 100;" xml:space="preserve">
<path id="Github" style="fill:#4174B9;" d="M50,0.2c-27.5,0-49.8,22.4-49.8,50c0,22.1,14.3,40.9,34.1,47.5c2.5,0.5,3.4-1.1,3.4-2.4
	c0-1.2,0-4.3-0.1-8.5c-13.9,3-16.8-6.7-16.8-6.7c-2.3-5.8-5.5-7.3-5.5-7.3c-4.5-3.1,0.3-3,0.3-3c5,0.4,7.6,5.2,7.6,5.2
	c4.4,7.6,11.7,5.4,14.5,4.2c0.5-3.2,1.7-5.4,3.2-6.7c-11.1-1.3-22.7-5.6-22.7-24.7c0-5.5,1.9-9.9,5.1-13.4
	c-0.5-1.3-2.2-6.4,0.5-13.2c0,0,4.2-1.3,13.7,5.1c4-1.1,8.2-1.7,12.5-1.7c4.2,0,8.5,0.6,12.5,1.7c9.5-6.5,13.7-5.1,13.7-5.1
	c2.7,6.9,1,12,0.5,13.2c3.2,3.5,5.1,8,5.1,13.4c0,19.2-11.7,23.5-22.8,24.7c1.8,1.5,3.4,4.6,3.4,9.3c0,6.7-0.1,12.1-0.1,13.7
	c0,1.3,0.9,2.9,3.4,2.4c19.8-6.6,34.1-25.4,34.1-47.5C99.8,22.6,77.5,0.2,50,0.2"/>
</svg>
