<?xml version="1.0" encoding="utf-8"?>
<!-- Generator: Adobe Illustrator 22.0.1, SVG Export Plug-In . SVG Version: 6.00 Build 0)  -->
<svg version="1.1" id="Layer_1" xmlns="http://www.w3.org/2000/svg" xmlns:xlink="http://www.w3.org/1999/xlink" x="0px" y="0px"
	 width="15px" height="15px" viewBox="0 0 15 15" style="enable-background:new 0 0 15 15;" xml:space="preserve">
<g>
	<g>
		<g>
			<path style="fill:#FFFFFF;" d="M8.8,10c-1.1,0-2.3-0.5-3-1.5C5.6,8.3,5.7,7.8,5.9,7.6c0.3-0.2,0.7-0.1,0.9,0.1
				c0.8,1.1,2.4,1.3,3.5,0.5c0.1-0.1,2.1-2.1,2.1-2.1c0.9-1,0.9-2.6-0.1-3.5s-2.5-0.9-3.5,0L7.8,3.7c-0.3,0.3-0.6,0.3-0.9,0
				c-0.3-0.3-0.3-0.6,0-0.9L8,1.7c1.4-1.4,3.8-1.4,5.2,0c1.5,1.4,1.5,3.8,0.1,5.3c0,0-2.1,2.1-2.3,2.3C10.4,9.8,9.6,10,8.8,10z"/>
		</g>
		<g>
			<path style="fill:#FFFFFF;" d="M4.5,14.3c-0.9,0-1.9-0.4-2.6-1.1c-1.5-1.4-1.5-3.8-0.1-5.3c0,0,2.1-2.1,2.3-2.2
				c0.8-0.6,1.8-0.9,2.8-0.7c1,0.1,1.9,0.7,2.4,1.4c0.2,0.3,0.1,0.7-0.1,0.9C8.8,7.6,8.4,7.5,8.2,7.3c-0.4-0.6-1-0.9-1.6-1
				C5.9,6.1,5.3,6.3,4.7,6.8C4.6,6.8,2.6,8.9,2.6,8.9c-0.9,1-0.9,2.6,0.1,3.5s2.5,0.9,3.5,0l1.1-1.1c0.3-0.3,0.6-0.3,0.9,0
				c0.3,0.3,0.3,0.6,0,0.9L7,13.3C6.3,14,5.4,14.3,4.5,14.3z"/>
		</g>
	</g>
</g>
</svg>
