<?xml version="1.0" encoding="utf-8"?>
<!-- Generator: Adobe Illustrator 22.0.1, SVG Export Plug-In . SVG Version: 6.00 Build 0)  -->
<svg version="1.1" xmlns="http://www.w3.org/2000/svg" xmlns:xlink="http://www.w3.org/1999/xlink" x="0px" y="0px" width="300px"
	 height="186.5px" viewBox="0 0 300 186.5" style="enable-background:new 0 0 300 186.5;" xml:space="preserve">
<style type="text/css">
	.st0{fill:#5A0FC8;}
	.st1{display:none;}
	.st2{display:inline;}
	.st3{fill:#679E63;}
	.st4{fill-rule:evenodd;clip-rule:evenodd;fill:#333333;}
	.st5{fill-rule:evenodd;clip-rule:evenodd;fill:#679E63;}
	.st6{clip-path:url(#XMLID_5_);}
	.st7{fill:none;}
	.st8{fill:url(#SVGID_1_);}
	.st9{fill:url(#SVGID_2_);}
	.st10{fill:url(#SVGID_3_);}
	.st11{fill:url(#SVGID_4_);}
	.st12{fill:url(#SVGID_5_);}
	.st13{fill:url(#SVGID_6_);}
</style>
<g id="US_UK_Download_on_the">
	<g>
		<path d="M219.2,128.8l8.5-21.5h24.5l-11.6-32.5L255.2,38l41.6,110.5h-30.7l-6.7-19.8L219.2,128.8z"/>
		<path class="st0" d="M193.1,148.6L237.7,38h-29.6l-30.5,71.5L155.9,38h-22.7l-23.3,71.5L93.5,76.9l-14.8,45.8L94,148.6h29.1
			l21.1-64l20.2,64H193.1z"/>
		<path d="M31.2,110.6h18.2c5,0.1,9.9-0.6,14.7-1.9l4.7-14.5L82,53.7c-1-1.6-2.2-3.1-3.4-4.5C70.8,41.3,60,37.2,49,38H3.2v110.5h28
			V110.6z M55.3,63.4c2.7,2.9,4.2,6.7,4,10.7c0.2,3.9-1,7.7-3.5,10.7c-3.9,3.4-8.9,5-14,4.4H31.2V59.6h10.6
			C46.7,59,51.5,60.4,55.3,63.4L55.3,63.4z"/>
	</g>
</g>
<g id="Layer_2" class="st1">
	<g class="st2">
		<g>
			<path class="st3" d="M148.3,183.1c-1,0-1.9-0.3-2.8-0.7l-8.8-5.2c-1.3-0.7-0.7-1-0.2-1.2c1.8-0.6,2.1-0.8,4-1.8
				c0.2-0.1,0.5-0.1,0.7,0.1l6.8,4c0.2,0.1,0.6,0.1,0.8,0l26.5-15.3c0.2-0.1,0.4-0.4,0.4-0.7v-30.6c0-0.3-0.2-0.6-0.4-0.7
				l-26.5-15.3c-0.2-0.1-0.6-0.1-0.8,0l-26.5,15.3c-0.3,0.1-0.4,0.4-0.4,0.7v30.6c0,0.3,0.2,0.6,0.4,0.7l7.3,4.2
				c3.9,2,6.4-0.3,6.4-2.7v-30.2c0-0.4,0.3-0.8,0.8-0.8h3.4c0.4,0,0.8,0.3,0.8,0.8v30.2c0,5.3-2.9,8.3-7.8,8.3c-1.5,0-2.7,0-6.1-1.7
				l-6.9-4c-1.7-1-2.8-2.8-2.8-4.8v-30.6c0-2,1.1-3.8,2.8-4.8l26.5-15.3c1.7-0.9,3.9-0.9,5.6,0l26.5,15.3c1.7,1,2.8,2.8,2.8,4.8
				v30.6c0,2-1.1,3.8-2.8,4.8l-26.5,15.3C150.3,182.8,149.3,183.1,148.3,183.1z"/>
			<path class="st3" d="M156.5,162c-11.6,0-14-5.3-14-9.8c0-0.4,0.3-0.8,0.8-0.8h3.4c0.4,0,0.7,0.3,0.8,0.6c0.5,3.5,2.1,5.2,9.1,5.2
				c5.6,0,8-1.3,8-4.2c0-1.7-0.7-3-9.3-3.8c-7.3-0.7-11.7-2.3-11.7-8.1c0-5.3,4.5-8.5,12.1-8.5c8.5,0,12.7,2.9,13.2,9.3
				c0,0.2-0.1,0.4-0.2,0.6c-0.1,0.2-0.3,0.2-0.6,0.2h-3.4c-0.4,0-0.7-0.3-0.7-0.6c-0.8-3.7-2.8-4.8-8.3-4.8c-6.1,0-6.8,2.1-6.8,3.7
				c0,1.9,0.8,2.5,9.1,3.6c8.1,1.1,12,2.6,12,8.3C169.7,158.7,164.9,162,156.5,162z"/>
		</g>
		<g>
			<path class="st3" d="M194.7,130c0,2.8-2.3,5.1-5.1,5.1c-2.8,0-5.1-2.3-5.1-5.1c0-2.9,2.4-5.1,5.1-5.1
				C192.4,124.9,194.7,127.1,194.7,130z M185.3,129.9c0,2.4,1.9,4.3,4.3,4.3c2.4,0,4.3-2,4.3-4.3c0-2.4-1.9-4.3-4.3-4.3
				C187.3,125.7,185.3,127.5,185.3,129.9z M187.7,127.1h2c0.7,0,2,0,2,1.5c0,1.1-0.7,1.3-1.1,1.4c0.8,0.1,0.8,0.6,0.9,1.3
				c0.1,0.5,0.1,1.2,0.3,1.5h-1.2c0-0.3-0.2-1.7-0.2-1.8c-0.1-0.3-0.2-0.5-0.6-0.5h-1v2.3h-1.1V127.1z M188.8,129.6h0.9
				c0.7,0,0.9-0.5,0.9-0.8c0-0.8-0.5-0.8-0.8-0.8h-0.9V129.6z"/>
		</g>
		<path class="st4" d="M66.3,63.5c0-1.2-0.6-2.3-1.7-2.9L36.5,44.3c-0.5-0.3-1-0.4-1.5-0.4c0,0-0.3,0-0.3,0c-0.5,0-1.1,0.2-1.6,0.4
			L5,60.5c-1,0.6-1.7,1.7-1.7,2.9L3.4,107c0,0.6,0.3,1.2,0.8,1.5c0.5,0.3,1.2,0.3,1.7,0l16.7-9.6c1.1-0.6,1.7-1.7,1.7-2.9V75.6
			c0-1.2,0.6-2.3,1.7-2.9l7.1-4.1c0.5-0.3,1.1-0.5,1.7-0.5c0.6,0,1.2,0.1,1.7,0.5l7.1,4.1c1.1,0.6,1.7,1.7,1.7,2.9V96
			c0,1.2,0.7,2.3,1.7,2.9l16.7,9.6c0.5,0.3,1.2,0.3,1.7,0c0.5-0.3,0.8-0.9,0.8-1.5L66.3,63.5z"/>
		<path class="st4" d="M201.4,3.6c-0.5-0.3-1.2-0.3-1.7,0c-0.5,0.3-0.8,0.9-0.8,1.5v43.1c0,0.4-0.2,0.8-0.6,1
			c-0.4,0.2-0.8,0.2-1.2,0l-7-4.1c-1-0.6-2.3-0.6-3.4,0l-28.1,16.2c-1.1,0.6-1.7,1.7-1.7,2.9v32.4c0,1.2,0.6,2.3,1.7,2.9l28.1,16.2
			c1.1,0.6,2.3,0.6,3.4,0l28.1-16.2c1-0.6,1.7-1.7,1.7-2.9V15.9c0-1.2-0.7-2.4-1.7-3L201.4,3.6z M198.8,86.1c0,0.3-0.2,0.6-0.4,0.7
			l-9.6,5.6c-0.3,0.2-0.6,0.2-0.8,0l-9.6-5.6c-0.3-0.2-0.4-0.4-0.4-0.7V75c0-0.3,0.2-0.6,0.4-0.7l9.6-5.6c0.3-0.2,0.6-0.2,0.8,0
			l9.6,5.6c0.3,0.2,0.4,0.4,0.4,0.7V86.1z"/>
		<g>
			<path class="st4" d="M295,74.7c1-0.6,1.7-1.7,1.7-2.9v-7.9c0-1.2-0.6-2.3-1.7-2.9l-27.9-16.2c-1.1-0.6-2.3-0.6-3.4,0L235.6,61
				c-1,0.6-1.7,1.7-1.7,2.9v32.4c0,1.2,0.7,2.3,1.7,2.9l27.9,15.9c1,0.6,2.3,0.6,3.3,0l16.9-9.4c0.5-0.3,0.9-0.9,0.9-1.5
				c0-0.6-0.3-1.2-0.9-1.5l-28.3-16.2c-0.5-0.3-0.9-0.9-0.9-1.5V75c0-0.6,0.3-1.2,0.8-1.5l8.8-5.1c0.5-0.3,1.2-0.3,1.7,0l8.8,5.1
				c0.5,0.3,0.8,0.9,0.8,1.5v8c0,0.6,0.3,1.2,0.9,1.5c0.5,0.3,1.2,0.3,1.7,0L295,74.7z"/>
			<path class="st5" d="M265,73.2c0.2-0.1,0.4-0.1,0.7,0l5.4,3.1c0.2,0.1,0.3,0.3,0.3,0.6v6.2c0,0.2-0.1,0.4-0.3,0.6l-5.4,3.1
				c-0.2,0.1-0.4,0.1-0.7,0l-5.4-3.1c-0.2-0.1-0.3-0.3-0.3-0.6v-6.2c0-0.2,0.1-0.4,0.3-0.6L265,73.2z"/>
		</g>
		<g>
			<defs>
				<path id="XMLID_143_" d="M113.3,44.9c-1-0.6-2.3-0.6-3.4,0L82,61c-1,0.6-1.7,1.7-1.7,2.9v32.3c0,1.2,0.6,2.3,1.7,2.9l27.9,16.1
					c1,0.6,2.3,0.6,3.4,0l27.9-16.1c1-0.6,1.7-1.7,1.7-2.9V64c0-1.2-0.6-2.3-1.7-2.9L113.3,44.9z"/>
			</defs>
			<linearGradient id="XMLID_2_" gradientUnits="userSpaceOnUse" x1="122.9444" y1="56.9239" x2="97.6961" y2="108.4303">
				<stop  offset="0" style="stop-color:#3F873F"/>
				<stop  offset="0.3296" style="stop-color:#3F8B3D"/>
				<stop  offset="0.6367" style="stop-color:#3E9638"/>
				<stop  offset="0.9341" style="stop-color:#3DA92E"/>
				<stop  offset="1" style="stop-color:#3DAE2B"/>
			</linearGradient>
			<use xlink:href="#XMLID_143_"  style="overflow:visible;fill-rule:evenodd;clip-rule:evenodd;fill:url(#XMLID_2_);"/>
			<clipPath id="XMLID_5_">
				<use xlink:href="#XMLID_143_"  style="overflow:visible;"/>
			</clipPath>
			<g class="st6">
				<path class="st7" d="M109.8,44.9L81.8,61c-1,0.6-1.8,1.7-1.8,2.9v32.3c0,0.8,0.3,1.6,0.9,2.1l31.5-53.8
					C111.5,44.4,110.6,44.5,109.8,44.9z"/>
				<path class="st7" d="M112.5,115.6c0.3-0.1,0.5-0.2,0.8-0.3l28-16.1c1-0.6,1.8-1.7,1.8-2.9V64c0-0.9-0.4-1.7-1-2.3L112.5,115.6z"
					/>
				<linearGradient id="SVGID_1_" gradientUnits="userSpaceOnUse" x1="107.3277" y1="83.8795" x2="178.1725" y2="31.5356">
					<stop  offset="0.1376" style="stop-color:#3F873F"/>
					<stop  offset="0.4016" style="stop-color:#52A044"/>
					<stop  offset="0.7129" style="stop-color:#64B749"/>
					<stop  offset="0.9081" style="stop-color:#6ABF4B"/>
				</linearGradient>
				<path class="st8" d="M141.3,61l-28-16.1c-0.3-0.2-0.6-0.3-0.9-0.3L80.9,98.4c0.3,0.3,0.6,0.6,0.9,0.8l28.1,16.1
					c0.8,0.5,1.7,0.6,2.6,0.3l29.5-54C141.8,61.4,141.5,61.2,141.3,61z"/>
			</g>
			<g class="st6">
				<path class="st7" d="M143,96.2V64c0-1.2-0.7-2.3-1.8-2.9l-28-16.1c-0.3-0.2-0.7-0.3-1-0.4L142.9,97C143,96.8,143,96.5,143,96.2z
					"/>
				<path class="st7" d="M81.8,61c-1,0.6-1.8,1.7-1.8,2.9v32.3c0,1.2,0.8,2.3,1.8,2.9l28.1,16.1c0.7,0.4,1.4,0.5,2.2,0.4L82,60.9
					L81.8,61z"/>
				<linearGradient id="SVGID_2_" gradientUnits="userSpaceOnUse" x1="79.2734" y1="39.0943" x2="143.8896" y2="39.0943">
					<stop  offset="9.191646e-02" style="stop-color:#6ABF4B"/>
					<stop  offset="0.2871" style="stop-color:#64B749"/>
					<stop  offset="0.5984" style="stop-color:#52A044"/>
					<stop  offset="0.8624" style="stop-color:#3F873F"/>
				</linearGradient>
				<polygon class="st9" points="109,39 108.6,39.2 109.1,39.2 				"/>
				<linearGradient id="SVGID_3_" gradientUnits="userSpaceOnUse" x1="79.2734" y1="80.0974" x2="143.8896" y2="80.0974">
					<stop  offset="9.191646e-02" style="stop-color:#6ABF4B"/>
					<stop  offset="0.2871" style="stop-color:#64B749"/>
					<stop  offset="0.5984" style="stop-color:#52A044"/>
					<stop  offset="0.8624" style="stop-color:#3F873F"/>
				</linearGradient>
				<path class="st10" d="M141.3,99.2c0.8-0.5,1.4-1.3,1.7-2.1l-30.7-52.5c-0.8-0.2-1.7,0-2.4,0.4L82,60.9l30.1,54.8
					c0.4-0.1,0.8-0.2,1.2-0.4L141.3,99.2z"/>
				<linearGradient id="SVGID_4_" gradientUnits="userSpaceOnUse" x1="79.2734" y1="98.5441" x2="143.8896" y2="98.5441">
					<stop  offset="9.191646e-02" style="stop-color:#6ABF4B"/>
					<stop  offset="0.2871" style="stop-color:#64B749"/>
					<stop  offset="0.5984" style="stop-color:#52A044"/>
					<stop  offset="0.8624" style="stop-color:#3F873F"/>
				</linearGradient>
				<polygon class="st11" points="143.9,98.6 143.7,98.3 143.7,98.8 				"/>
				<linearGradient id="SVGID_5_" gradientUnits="userSpaceOnUse" x1="79.2734" y1="106.8815" x2="143.8896" y2="106.8815">
					<stop  offset="9.191646e-02" style="stop-color:#6ABF4B"/>
					<stop  offset="0.2871" style="stop-color:#64B749"/>
					<stop  offset="0.5984" style="stop-color:#52A044"/>
					<stop  offset="0.8624" style="stop-color:#3F873F"/>
				</linearGradient>
				<path class="st12" d="M141.3,99.2l-28,16.1c-0.4,0.2-0.8,0.4-1.2,0.4l0.6,1l31.1-18v-0.4l-0.8-1.3
					C142.7,97.9,142.1,98.7,141.3,99.2z"/>
				<linearGradient id="SVGID_6_" gradientUnits="userSpaceOnUse" x1="153.3035" y1="55.3968" x2="113.4523" y2="136.6933">
					<stop  offset="0" style="stop-color:#3F873F"/>
					<stop  offset="0.3296" style="stop-color:#3F8B3D"/>
					<stop  offset="0.6367" style="stop-color:#3E9638"/>
					<stop  offset="0.9341" style="stop-color:#3DA92E"/>
					<stop  offset="1" style="stop-color:#3DAE2B"/>
				</linearGradient>
				<path class="st13" d="M141.3,99.2l-28,16.1c-0.4,0.2-0.8,0.4-1.2,0.4l0.6,1l31.1-18v-0.4l-0.8-1.3
					C142.7,97.9,142.1,98.7,141.3,99.2z"/>
			</g>
		</g>
	</g>
</g>
</svg>
