<?xml version="1.0" encoding="utf-8"?>
<!-- Generator: Adobe Illustrator 22.0.1, SVG Export Plug-In . SVG Version: 6.00 Build 0)  -->
<svg version="1.1" id="Layer_1" xmlns="http://www.w3.org/2000/svg" xmlns:xlink="http://www.w3.org/1999/xlink" x="0px" y="0px"
	 width="100px" height="100px" viewBox="0 0 100 100" style="enable-background:new 0 0 100 100;" xml:space="preserve">
<polygon style="fill:#E52421;" points="43.2,59.8 60.5,50 43.2,40.2 "/>
<path style="fill:#E52421;" d="M50,0.2C22.5,0.2,0.2,22.5,0.2,50S22.5,99.8,50,99.8c27.5,0,49.8-22.3,49.8-49.8S77.5,0.2,50,0.2z
	 M81.7,66c-0.8,2.9-3,5.1-5.9,5.9C70.7,73.3,50,73.3,50,73.3s-20.7,0-25.9-1.4c-2.9-0.8-5.1-3-5.8-5.9c-1.4-5.2-1.4-16-1.4-16
	s0-10.8,1.4-16c0.8-2.9,3-5.1,5.9-5.9c5.2-1.4,25.9-1.4,25.9-1.4s20.7,0,25.9,1.4c2.9,0.8,5.1,3,5.8,5.9c1.4,5.2,1.4,16,1.4,16
	S83.1,60.8,81.7,66z"/>
</svg>
